<svg xmlns="http://www.w3.org/2000/svg" width="712mm" height="178mm" viewBox="0 0 712.00 178.00">
<rect width="712.00" height="178.00" fill="white"/>
<text x="14.0" y="10" font-family="Arial" font-size="6" fill="#0057B8">Keep It Green bin - CNC cut layout - material T=6mm - units mm - RED=cut BLUE=etch</text>
<g transform="translate(14.00,14.00)"><rect x="0" y="0" width="102.00" height="102.00" rx="2" fill="none" stroke="#E4002B" stroke-width="0.25"/>
<circle cx="8.00" cy="94.00" r="1.60" fill="none" stroke="#E4002B" stroke-width="0.25"/>
<circle cx="51.00" cy="94.00" r="1.60" fill="none" stroke="#E4002B" stroke-width="0.25"/>
<circle cx="94.00" cy="94.00" r="1.60" fill="none" stroke="#E4002B" stroke-width="0.25"/>
<circle cx="8.00" cy="8.00" r="1.60" fill="none" stroke="#E4002B" stroke-width="0.25"/>
<circle cx="51.00" cy="8.00" r="1.60" fill="none" stroke="#E4002B" stroke-width="0.25"/>
<circle cx="94.00" cy="8.00" r="1.60" fill="none" stroke="#E4002B" stroke-width="0.25"/>
<circle cx="8.00" cy="8.00" r="1.60" fill="none" stroke="#E4002B" stroke-width="0.25"/>
<circle cx="8.00" cy="51.00" r="1.60" fill="none" stroke="#E4002B" stroke-width="0.25"/>
<circle cx="8.00" cy="94.00" r="1.60" fill="none" stroke="#E4002B" stroke-width="0.25"/>
<circle cx="94.00" cy="8.00" r="1.60" fill="none" stroke="#E4002B" stroke-width="0.25"/>
<circle cx="94.00" cy="51.00" r="1.60" fill="none" stroke="#E4002B" stroke-width="0.25"/>
<circle cx="94.00" cy="94.00" r="1.60" fill="none" stroke="#E4002B" stroke-width="0.25"/>
<circle cx="6.50" cy="72.00" r="1.25" fill="none" stroke="#E4002B" stroke-width="0.25"/>
<circle cx="51.50" cy="72.00" r="1.25" fill="none" stroke="#E4002B" stroke-width="0.25"/>
<rect x="6.50" y="63.00" width="45.00" height="18.00" rx="1" fill="none" stroke="#E4002B" stroke-width="0.25"/>
<text x="51.00" y="95.00" font-family="Arial" font-size="7" fill="#0057B8" text-anchor="middle">BOTTOM</text>
<text x="3" y="9" font-family="Arial" font-size="5" fill="#0057B8">BOTTOM  102x102</text></g>
<g transform="translate(132.00,14.00)"><rect x="0" y="0" width="102.00" height="102.00" rx="2" fill="none" stroke="#E4002B" stroke-width="0.25"/>
<circle cx="16.00" cy="6.00" r="1.70" fill="none" stroke="#E4002B" stroke-width="0.25"/>
<circle cx="86.00" cy="6.00" r="1.70" fill="none" stroke="#E4002B" stroke-width="0.25"/>
<rect x="73.00" y="9.00" width="6.00" height="14.00" rx="1" fill="none" stroke="#E4002B" stroke-width="0.25"/>
<text x="51.00" y="95.00" font-family="Arial" font-size="7" fill="#0057B8" text-anchor="middle">LID</text>
<text x="3" y="9" font-family="Arial" font-size="5" fill="#0057B8">LID  102x102</text></g>
<g transform="translate(250.00,14.00)"><rect x="0" y="0" width="102.00" height="150.00" rx="2" fill="none" stroke="#E4002B" stroke-width="0.25"/>
<circle cx="8.00" cy="142.00" r="1.60" fill="none" stroke="#E4002B" stroke-width="0.25"/>
<circle cx="51.00" cy="142.00" r="1.60" fill="none" stroke="#E4002B" stroke-width="0.25"/>
<circle cx="94.00" cy="142.00" r="1.60" fill="none" stroke="#E4002B" stroke-width="0.25"/>
<circle cx="8.00" cy="8.00" r="1.60" fill="none" stroke="#E4002B" stroke-width="0.25"/>
<circle cx="8.00" cy="75.00" r="1.60" fill="none" stroke="#E4002B" stroke-width="0.25"/>
<circle cx="8.00" cy="142.00" r="1.60" fill="none" stroke="#E4002B" stroke-width="0.25"/>
<circle cx="94.00" cy="8.00" r="1.60" fill="none" stroke="#E4002B" stroke-width="0.25"/>
<circle cx="94.00" cy="75.00" r="1.60" fill="none" stroke="#E4002B" stroke-width="0.25"/>
<circle cx="94.00" cy="142.00" r="1.60" fill="none" stroke="#E4002B" stroke-width="0.25"/>
<rect x="25.00" y="129.00" width="8.00" height="6.00" rx="1" fill="none" stroke="#E4002B" stroke-width="0.25"/>
<text x="51.00" y="143.00" font-family="Arial" font-size="7" fill="#0057B8" text-anchor="middle">FRONT - PLASTIC / ALUMINUM</text>
<text x="3" y="9" font-family="Arial" font-size="5" fill="#0057B8">FRONT  102x150</text></g>
<g transform="translate(368.00,14.00)"><rect x="0" y="0" width="102.00" height="150.00" rx="2" fill="none" stroke="#E4002B" stroke-width="0.25"/>
<circle cx="8.00" cy="142.00" r="1.60" fill="none" stroke="#E4002B" stroke-width="0.25"/>
<circle cx="51.00" cy="142.00" r="1.60" fill="none" stroke="#E4002B" stroke-width="0.25"/>
<circle cx="94.00" cy="142.00" r="1.60" fill="none" stroke="#E4002B" stroke-width="0.25"/>
<circle cx="8.00" cy="8.00" r="1.60" fill="none" stroke="#E4002B" stroke-width="0.25"/>
<circle cx="8.00" cy="75.00" r="1.60" fill="none" stroke="#E4002B" stroke-width="0.25"/>
<circle cx="8.00" cy="142.00" r="1.60" fill="none" stroke="#E4002B" stroke-width="0.25"/>
<circle cx="94.00" cy="8.00" r="1.60" fill="none" stroke="#E4002B" stroke-width="0.25"/>
<circle cx="94.00" cy="75.00" r="1.60" fill="none" stroke="#E4002B" stroke-width="0.25"/>
<circle cx="94.00" cy="142.00" r="1.60" fill="none" stroke="#E4002B" stroke-width="0.25"/>
<circle cx="51.00" cy="134.00" r="3.50" fill="none" stroke="#E4002B" stroke-width="0.25"/>
<circle cx="16.00" cy="6.00" r="1.70" fill="none" stroke="#E4002B" stroke-width="0.25"/>
<circle cx="86.00" cy="6.00" r="1.70" fill="none" stroke="#E4002B" stroke-width="0.25"/>
<text x="51.00" y="143.00" font-family="Arial" font-size="7" fill="#0057B8" text-anchor="middle">BACK</text>
<text x="3" y="9" font-family="Arial" font-size="5" fill="#0057B8">BACK  102x150</text></g>
<g transform="translate(486.00,14.00)"><rect x="0" y="0" width="90.00" height="150.00" rx="2" fill="none" stroke="#E4002B" stroke-width="0.25"/>
<circle cx="8.00" cy="142.00" r="1.60" fill="none" stroke="#E4002B" stroke-width="0.25"/>
<circle cx="45.00" cy="142.00" r="1.60" fill="none" stroke="#E4002B" stroke-width="0.25"/>
<circle cx="82.00" cy="142.00" r="1.60" fill="none" stroke="#E4002B" stroke-width="0.25"/>
<text x="45.00" y="143.00" font-family="Arial" font-size="7" fill="#0057B8" text-anchor="middle">LEFT</text>
<text x="3" y="9" font-family="Arial" font-size="5" fill="#0057B8">LEFT  90x150</text></g>
<g transform="translate(592.00,14.00)"><rect x="0" y="0" width="90.00" height="150.00" rx="2" fill="none" stroke="#E4002B" stroke-width="0.25"/>
<circle cx="8.00" cy="142.00" r="1.60" fill="none" stroke="#E4002B" stroke-width="0.25"/>
<circle cx="45.00" cy="142.00" r="1.60" fill="none" stroke="#E4002B" stroke-width="0.25"/>
<circle cx="82.00" cy="142.00" r="1.60" fill="none" stroke="#E4002B" stroke-width="0.25"/>
<rect x="57.70" y="18.40" width="12.60" height="23.20" rx="1" fill="none" stroke="#E4002B" stroke-width="0.25"/>
<circle cx="64.00" cy="16.00" r="1.15" fill="none" stroke="#E4002B" stroke-width="0.25"/>
<circle cx="64.00" cy="44.00" r="1.15" fill="none" stroke="#E4002B" stroke-width="0.25"/>
<text x="45.00" y="143.00" font-family="Arial" font-size="7" fill="#0057B8" text-anchor="middle">RIGHT (servo)</text>
<text x="3" y="9" font-family="Arial" font-size="5" fill="#0057B8">RIGHT (servo)  90x150</text></g>
</svg>
