0
SECTION
2
HEADER
9
$ACADVER
1
AC1009
0
ENDSEC
0
SECTION
2
TABLES
0
TABLE
2
LAYER
70
2
0
LAYER
2
CUT
70
0
62
1
6
CONTINUOUS
0
LAYER
2
ENGRAVE
70
0
62
5
6
CONTINUOUS
0
ENDTAB
0
ENDSEC
0
SECTION
2
ENTITIES
0
POLYLINE
8
CUT
66
1
70
1
0
VERTEX
8
CUT
10
12.000
20
12.000
0
VERTEX
8
CUT
10
15.000
20
12.000
0
VERTEX
8
CUT
10
15.000
20
15.000
0
VERTEX
8
CUT
10
33.800
20
15.000
0
VERTEX
8
CUT
10
33.800
20
12.000
0
VERTEX
8
CUT
10
52.600
20
12.000
0
VERTEX
8
CUT
10
52.600
20
15.000
0
VERTEX
8
CUT
10
71.400
20
15.000
0
VERTEX
8
CUT
10
71.400
20
12.000
0
VERTEX
8
CUT
10
90.200
20
12.000
0
VERTEX
8
CUT
10
90.200
20
15.000
0
VERTEX
8
CUT
10
109.000
20
15.000
0
VERTEX
8
CUT
10
109.000
20
12.000
0
VERTEX
8
CUT
10
112.000
20
12.000
0
VERTEX
8
CUT
10
112.000
20
12.000
0
VERTEX
8
CUT
10
112.000
20
15.000
0
VERTEX
8
CUT
10
109.000
20
15.000
0
VERTEX
8
CUT
10
109.000
20
33.800
0
VERTEX
8
CUT
10
112.000
20
33.800
0
VERTEX
8
CUT
10
112.000
20
52.600
0
VERTEX
8
CUT
10
109.000
20
52.600
0
VERTEX
8
CUT
10
109.000
20
71.400
0
VERTEX
8
CUT
10
112.000
20
71.400
0
VERTEX
8
CUT
10
112.000
20
90.200
0
VERTEX
8
CUT
10
109.000
20
90.200
0
VERTEX
8
CUT
10
109.000
20
109.000
0
VERTEX
8
CUT
10
112.000
20
109.000
0
VERTEX
8
CUT
10
112.000
20
112.000
0
VERTEX
8
CUT
10
112.000
20
112.000
0
VERTEX
8
CUT
10
109.000
20
112.000
0
VERTEX
8
CUT
10
109.000
20
109.000
0
VERTEX
8
CUT
10
90.200
20
109.000
0
VERTEX
8
CUT
10
90.200
20
112.000
0
VERTEX
8
CUT
10
71.400
20
112.000
0
VERTEX
8
CUT
10
71.400
20
109.000
0
VERTEX
8
CUT
10
52.600
20
109.000
0
VERTEX
8
CUT
10
52.600
20
112.000
0
VERTEX
8
CUT
10
33.800
20
112.000
0
VERTEX
8
CUT
10
33.800
20
109.000
0
VERTEX
8
CUT
10
15.000
20
109.000
0
VERTEX
8
CUT
10
15.000
20
112.000
0
VERTEX
8
CUT
10
12.000
20
112.000
0
VERTEX
8
CUT
10
12.000
20
112.000
0
VERTEX
8
CUT
10
12.000
20
109.000
0
VERTEX
8
CUT
10
15.000
20
109.000
0
VERTEX
8
CUT
10
15.000
20
90.200
0
VERTEX
8
CUT
10
12.000
20
90.200
0
VERTEX
8
CUT
10
12.000
20
71.400
0
VERTEX
8
CUT
10
15.000
20
71.400
0
VERTEX
8
CUT
10
15.000
20
52.600
0
VERTEX
8
CUT
10
12.000
20
52.600
0
VERTEX
8
CUT
10
12.000
20
33.800
0
VERTEX
8
CUT
10
15.000
20
33.800
0
VERTEX
8
CUT
10
15.000
20
15.000
0
VERTEX
8
CUT
10
12.000
20
15.000
0
VERTEX
8
CUT
10
12.000
20
12.000
0
SEQEND
0
CIRCLE
8
CUT
10
15.000
20
15.000
40
0.900
0
CIRCLE
8
CUT
10
33.800
20
15.000
40
0.900
0
CIRCLE
8
CUT
10
52.600
20
15.000
40
0.900
0
CIRCLE
8
CUT
10
71.400
20
15.000
40
0.900
0
CIRCLE
8
CUT
10
90.200
20
15.000
40
0.900
0
CIRCLE
8
CUT
10
109.000
20
15.000
40
0.900
0
CIRCLE
8
CUT
10
109.000
20
15.000
40
0.900
0
CIRCLE
8
CUT
10
109.000
20
33.800
40
0.900
0
CIRCLE
8
CUT
10
109.000
20
52.600
40
0.900
0
CIRCLE
8
CUT
10
109.000
20
71.400
40
0.900
0
CIRCLE
8
CUT
10
109.000
20
90.200
40
0.900
0
CIRCLE
8
CUT
10
109.000
20
109.000
40
0.900
0
CIRCLE
8
CUT
10
109.000
20
109.000
40
0.900
0
CIRCLE
8
CUT
10
90.200
20
109.000
40
0.900
0
CIRCLE
8
CUT
10
71.400
20
109.000
40
0.900
0
CIRCLE
8
CUT
10
52.600
20
109.000
40
0.900
0
CIRCLE
8
CUT
10
33.800
20
109.000
40
0.900
0
CIRCLE
8
CUT
10
15.000
20
109.000
40
0.900
0
CIRCLE
8
CUT
10
15.000
20
109.000
40
0.900
0
CIRCLE
8
CUT
10
15.000
20
90.200
40
0.900
0
CIRCLE
8
CUT
10
15.000
20
71.400
40
0.900
0
CIRCLE
8
CUT
10
15.000
20
52.600
40
0.900
0
CIRCLE
8
CUT
10
15.000
20
33.800
40
0.900
0
CIRCLE
8
CUT
10
15.000
20
15.000
40
0.900
0
POLYLINE
8
CUT
66
1
70
1
0
VERTEX
8
CUT
10
129.000
20
12.000
0
VERTEX
8
CUT
10
147.800
20
12.000
0
VERTEX
8
CUT
10
147.800
20
15.000
0
VERTEX
8
CUT
10
166.600
20
15.000
0
VERTEX
8
CUT
10
166.600
20
12.000
0
VERTEX
8
CUT
10
185.400
20
12.000
0
VERTEX
8
CUT
10
185.400
20
15.000
0
VERTEX
8
CUT
10
204.200
20
15.000
0
VERTEX
8
CUT
10
204.200
20
12.000
0
VERTEX
8
CUT
10
223.000
20
12.000
0
VERTEX
8
CUT
10
223.000
20
15.000
0
VERTEX
8
CUT
10
226.000
20
15.000
0
VERTEX
8
CUT
10
226.000
20
33.800
0
VERTEX
8
CUT
10
223.000
20
33.800
0
VERTEX
8
CUT
10
223.000
20
52.600
0
VERTEX
8
CUT
10
226.000
20
52.600
0
VERTEX
8
CUT
10
226.000
20
71.400
0
VERTEX
8
CUT
10
223.000
20
71.400
0
VERTEX
8
CUT
10
223.000
20
90.200
0
VERTEX
8
CUT
10
226.000
20
90.200
0
VERTEX
8
CUT
10
226.000
20
109.000
0
VERTEX
8
CUT
10
223.000
20
109.000
0
VERTEX
8
CUT
10
223.000
20
112.000
0
VERTEX
8
CUT
10
129.000
20
112.000
0
VERTEX
8
CUT
10
129.000
20
109.000
0
VERTEX
8
CUT
10
126.000
20
109.000
0
VERTEX
8
CUT
10
126.000
20
90.200
0
VERTEX
8
CUT
10
129.000
20
90.200
0
VERTEX
8
CUT
10
129.000
20
71.400
0
VERTEX
8
CUT
10
126.000
20
71.400
0
VERTEX
8
CUT
10
126.000
20
52.600
0
VERTEX
8
CUT
10
129.000
20
52.600
0
VERTEX
8
CUT
10
129.000
20
33.800
0
VERTEX
8
CUT
10
126.000
20
33.800
0
VERTEX
8
CUT
10
126.000
20
15.000
0
VERTEX
8
CUT
10
129.000
20
15.000
0
VERTEX
8
CUT
10
129.000
20
12.000
0
SEQEND
0
CIRCLE
8
CUT
10
147.800
20
15.000
40
0.900
0
CIRCLE
8
CUT
10
166.600
20
15.000
40
0.900
0
CIRCLE
8
CUT
10
185.400
20
15.000
40
0.900
0
CIRCLE
8
CUT
10
204.200
20
15.000
40
0.900
0
CIRCLE
8
CUT
10
223.000
20
33.800
40
0.900
0
CIRCLE
8
CUT
10
223.000
20
52.600
40
0.900
0
CIRCLE
8
CUT
10
223.000
20
71.400
40
0.900
0
CIRCLE
8
CUT
10
223.000
20
90.200
40
0.900
0
CIRCLE
8
CUT
10
129.000
20
90.200
40
0.900
0
CIRCLE
8
CUT
10
129.000
20
71.400
40
0.900
0
CIRCLE
8
CUT
10
129.000
20
52.600
40
0.900
0
CIRCLE
8
CUT
10
129.000
20
33.800
40
0.900
0
TEXT
8
ENGRAVE
10
176.000
20
62.000
40
13.000
1
PLASTIC
72
1
11
176.000
21
62.000
0
TEXT
8
ENGRAVE
10
176.000
20
77.000
40
5.000
1
KEEP IT GREEN
72
1
11
176.000
21
77.000
0
POLYLINE
8
CUT
66
1
70
1
0
VERTEX
8
CUT
10
243.000
20
12.000
0
VERTEX
8
CUT
10
261.800
20
12.000
0
VERTEX
8
CUT
10
261.800
20
15.000
0
VERTEX
8
CUT
10
280.600
20
15.000
0
VERTEX
8
CUT
10
280.600
20
12.000
0
VERTEX
8
CUT
10
299.400
20
12.000
0
VERTEX
8
CUT
10
299.400
20
15.000
0
VERTEX
8
CUT
10
318.200
20
15.000
0
VERTEX
8
CUT
10
318.200
20
12.000
0
VERTEX
8
CUT
10
337.000
20
12.000
0
VERTEX
8
CUT
10
337.000
20
15.000
0
VERTEX
8
CUT
10
340.000
20
15.000
0
VERTEX
8
CUT
10
340.000
20
33.800
0
VERTEX
8
CUT
10
337.000
20
33.800
0
VERTEX
8
CUT
10
337.000
20
52.600
0
VERTEX
8
CUT
10
340.000
20
52.600
0
VERTEX
8
CUT
10
340.000
20
71.400
0
VERTEX
8
CUT
10
337.000
20
71.400
0
VERTEX
8
CUT
10
337.000
20
90.200
0
VERTEX
8
CUT
10
340.000
20
90.200
0
VERTEX
8
CUT
10
340.000
20
109.000
0
VERTEX
8
CUT
10
337.000
20
109.000
0
VERTEX
8
CUT
10
337.000
20
112.000
0
VERTEX
8
CUT
10
243.000
20
112.000
0
VERTEX
8
CUT
10
243.000
20
109.000
0
VERTEX
8
CUT
10
240.000
20
109.000
0
VERTEX
8
CUT
10
240.000
20
90.200
0
VERTEX
8
CUT
10
243.000
20
90.200
0
VERTEX
8
CUT
10
243.000
20
71.400
0
VERTEX
8
CUT
10
240.000
20
71.400
0
VERTEX
8
CUT
10
240.000
20
52.600
0
VERTEX
8
CUT
10
243.000
20
52.600
0
VERTEX
8
CUT
10
243.000
20
33.800
0
VERTEX
8
CUT
10
240.000
20
33.800
0
VERTEX
8
CUT
10
240.000
20
15.000
0
VERTEX
8
CUT
10
243.000
20
15.000
0
VERTEX
8
CUT
10
243.000
20
12.000
0
SEQEND
0
CIRCLE
8
CUT
10
290.000
20
30.000
40
3.500
0
CIRCLE
8
CUT
10
261.800
20
15.000
40
0.900
0
CIRCLE
8
CUT
10
280.600
20
15.000
40
0.900
0
CIRCLE
8
CUT
10
299.400
20
15.000
40
0.900
0
CIRCLE
8
CUT
10
318.200
20
15.000
40
0.900
0
CIRCLE
8
CUT
10
337.000
20
33.800
40
0.900
0
CIRCLE
8
CUT
10
337.000
20
52.600
40
0.900
0
CIRCLE
8
CUT
10
337.000
20
71.400
40
0.900
0
CIRCLE
8
CUT
10
337.000
20
90.200
40
0.900
0
CIRCLE
8
CUT
10
243.000
20
90.200
40
0.900
0
CIRCLE
8
CUT
10
243.000
20
71.400
40
0.900
0
CIRCLE
8
CUT
10
243.000
20
52.600
40
0.900
0
CIRCLE
8
CUT
10
243.000
20
33.800
40
0.900
0
POLYLINE
8
CUT
66
1
70
1
0
VERTEX
8
CUT
10
15.000
20
126.000
0
VERTEX
8
CUT
10
33.800
20
126.000
0
VERTEX
8
CUT
10
33.800
20
129.000
0
VERTEX
8
CUT
10
52.600
20
129.000
0
VERTEX
8
CUT
10
52.600
20
126.000
0
VERTEX
8
CUT
10
71.400
20
126.000
0
VERTEX
8
CUT
10
71.400
20
129.000
0
VERTEX
8
CUT
10
90.200
20
129.000
0
VERTEX
8
CUT
10
90.200
20
126.000
0
VERTEX
8
CUT
10
109.000
20
126.000
0
VERTEX
8
CUT
10
109.000
20
129.000
0
VERTEX
8
CUT
10
112.000
20
129.000
0
VERTEX
8
CUT
10
109.000
20
129.000
0
VERTEX
8
CUT
10
109.000
20
147.800
0
VERTEX
8
CUT
10
112.000
20
147.800
0
VERTEX
8
CUT
10
112.000
20
166.600
0
VERTEX
8
CUT
10
109.000
20
166.600
0
VERTEX
8
CUT
10
109.000
20
185.400
0
VERTEX
8
CUT
10
112.000
20
185.400
0
VERTEX
8
CUT
10
112.000
20
204.200
0
VERTEX
8
CUT
10
109.000
20
204.200
0
VERTEX
8
CUT
10
109.000
20
223.000
0
VERTEX
8
CUT
10
112.000
20
223.000
0
VERTEX
8
CUT
10
109.000
20
223.000
0
VERTEX
8
CUT
10
109.000
20
226.000
0
VERTEX
8
CUT
10
15.000
20
226.000
0
VERTEX
8
CUT
10
15.000
20
223.000
0
VERTEX
8
CUT
10
12.000
20
223.000
0
VERTEX
8
CUT
10
15.000
20
223.000
0
VERTEX
8
CUT
10
15.000
20
204.200
0
VERTEX
8
CUT
10
12.000
20
204.200
0
VERTEX
8
CUT
10
12.000
20
185.400
0
VERTEX
8
CUT
10
15.000
20
185.400
0
VERTEX
8
CUT
10
15.000
20
166.600
0
VERTEX
8
CUT
10
12.000
20
166.600
0
VERTEX
8
CUT
10
12.000
20
147.800
0
VERTEX
8
CUT
10
15.000
20
147.800
0
VERTEX
8
CUT
10
15.000
20
129.000
0
VERTEX
8
CUT
10
12.000
20
129.000
0
VERTEX
8
CUT
10
15.000
20
129.000
0
VERTEX
8
CUT
10
15.000
20
126.000
0
SEQEND
0
CIRCLE
8
CUT
10
95.000
20
220.000
40
1.150
0
CIRCLE
8
CUT
10
95.000
20
192.000
40
1.150
0
CIRCLE
8
CUT
10
95.000
20
184.000
40
3.000
0
POLYLINE
8
CUT
66
1
70
1
0
VERTEX
8
CUT
10
88.700
20
194.400
0
VERTEX
8
CUT
10
101.300
20
194.400
0
VERTEX
8
CUT
10
101.300
20
217.600
0
VERTEX
8
CUT
10
88.700
20
217.600
0
SEQEND
0
CIRCLE
8
CUT
10
33.800
20
129.000
40
0.900
0
CIRCLE
8
CUT
10
52.600
20
129.000
40
0.900
0
CIRCLE
8
CUT
10
71.400
20
129.000
40
0.900
0
CIRCLE
8
CUT
10
90.200
20
129.000
40
0.900
0
CIRCLE
8
CUT
10
109.000
20
129.000
40
0.900
0
CIRCLE
8
CUT
10
109.000
20
147.800
40
0.900
0
CIRCLE
8
CUT
10
109.000
20
166.600
40
0.900
0
CIRCLE
8
CUT
10
109.000
20
185.400
40
0.900
0
CIRCLE
8
CUT
10
109.000
20
204.200
40
0.900
0
CIRCLE
8
CUT
10
109.000
20
223.000
40
0.900
0
CIRCLE
8
CUT
10
15.000
20
223.000
40
0.900
0
CIRCLE
8
CUT
10
15.000
20
204.200
40
0.900
0
CIRCLE
8
CUT
10
15.000
20
185.400
40
0.900
0
CIRCLE
8
CUT
10
15.000
20
166.600
40
0.900
0
CIRCLE
8
CUT
10
15.000
20
147.800
40
0.900
0
CIRCLE
8
CUT
10
15.000
20
129.000
40
0.900
0
POLYLINE
8
CUT
66
1
70
1
0
VERTEX
8
CUT
10
129.000
20
126.000
0
VERTEX
8
CUT
10
147.800
20
126.000
0
VERTEX
8
CUT
10
147.800
20
129.000
0
VERTEX
8
CUT
10
166.600
20
129.000
0
VERTEX
8
CUT
10
166.600
20
126.000
0
VERTEX
8
CUT
10
185.400
20
126.000
0
VERTEX
8
CUT
10
185.400
20
129.000
0
VERTEX
8
CUT
10
204.200
20
129.000
0
VERTEX
8
CUT
10
204.200
20
126.000
0
VERTEX
8
CUT
10
223.000
20
126.000
0
VERTEX
8
CUT
10
223.000
20
129.000
0
VERTEX
8
CUT
10
226.000
20
129.000
0
VERTEX
8
CUT
10
223.000
20
129.000
0
VERTEX
8
CUT
10
223.000
20
147.800
0
VERTEX
8
CUT
10
226.000
20
147.800
0
VERTEX
8
CUT
10
226.000
20
166.600
0
VERTEX
8
CUT
10
223.000
20
166.600
0
VERTEX
8
CUT
10
223.000
20
185.400
0
VERTEX
8
CUT
10
226.000
20
185.400
0
VERTEX
8
CUT
10
226.000
20
204.200
0
VERTEX
8
CUT
10
223.000
20
204.200
0
VERTEX
8
CUT
10
223.000
20
223.000
0
VERTEX
8
CUT
10
226.000
20
223.000
0
VERTEX
8
CUT
10
223.000
20
223.000
0
VERTEX
8
CUT
10
223.000
20
226.000
0
VERTEX
8
CUT
10
129.000
20
226.000
0
VERTEX
8
CUT
10
129.000
20
223.000
0
VERTEX
8
CUT
10
126.000
20
223.000
0
VERTEX
8
CUT
10
129.000
20
223.000
0
VERTEX
8
CUT
10
129.000
20
204.200
0
VERTEX
8
CUT
10
126.000
20
204.200
0
VERTEX
8
CUT
10
126.000
20
185.400
0
VERTEX
8
CUT
10
129.000
20
185.400
0
VERTEX
8
CUT
10
129.000
20
166.600
0
VERTEX
8
CUT
10
126.000
20
166.600
0
VERTEX
8
CUT
10
126.000
20
147.800
0
VERTEX
8
CUT
10
129.000
20
147.800
0
VERTEX
8
CUT
10
129.000
20
129.000
0
VERTEX
8
CUT
10
126.000
20
129.000
0
VERTEX
8
CUT
10
129.000
20
129.000
0
VERTEX
8
CUT
10
129.000
20
126.000
0
SEQEND
0
CIRCLE
8
CUT
10
209.000
20
206.000
40
1.800
0
CIRCLE
8
CUT
10
147.800
20
129.000
40
0.900
0
CIRCLE
8
CUT
10
166.600
20
129.000
40
0.900
0
CIRCLE
8
CUT
10
185.400
20
129.000
40
0.900
0
CIRCLE
8
CUT
10
204.200
20
129.000
40
0.900
0
CIRCLE
8
CUT
10
223.000
20
129.000
40
0.900
0
CIRCLE
8
CUT
10
223.000
20
147.800
40
0.900
0
CIRCLE
8
CUT
10
223.000
20
166.600
40
0.900
0
CIRCLE
8
CUT
10
223.000
20
185.400
40
0.900
0
CIRCLE
8
CUT
10
223.000
20
204.200
40
0.900
0
CIRCLE
8
CUT
10
223.000
20
223.000
40
0.900
0
CIRCLE
8
CUT
10
129.000
20
223.000
40
0.900
0
CIRCLE
8
CUT
10
129.000
20
204.200
40
0.900
0
CIRCLE
8
CUT
10
129.000
20
185.400
40
0.900
0
CIRCLE
8
CUT
10
129.000
20
166.600
40
0.900
0
CIRCLE
8
CUT
10
129.000
20
147.800
40
0.900
0
CIRCLE
8
CUT
10
129.000
20
129.000
40
0.900
0
POLYLINE
8
CUT
66
1
70
1
0
VERTEX
8
CUT
10
240.000
20
126.000
0
VERTEX
8
CUT
10
340.000
20
126.000
0
VERTEX
8
CUT
10
340.000
20
226.000
0
VERTEX
8
CUT
10
240.000
20
226.000
0
SEQEND
0
CIRCLE
8
CUT
10
290.000
20
138.000
40
11.000
0
CIRCLE
8
CUT
10
254.000
20
214.000
40
1.600
0
CIRCLE
8
CUT
10
266.000
20
214.000
40
1.600
0
CIRCLE
8
CUT
10
326.000
20
214.000
40
1.600
0
CIRCLE
8
CUT
10
314.000
20
214.000
40
1.600
0
TEXT
8
ENGRAVE
10
290.000
20
176.000
40
9.000
1
PLASTIC
72
1
11
290.000
21
176.000
0
POLYLINE
8
CUT
66
1
70
1
0
VERTEX
8
CUT
10
12.000
20
240.000
0
VERTEX
8
CUT
10
34.000
20
240.000
0
VERTEX
8
CUT
10
34.000
20
258.000
0
VERTEX
8
CUT
10
12.000
20
258.000
0
SEQEND
0
CIRCLE
8
CUT
10
23.000
20
252.000
40
2.600
0
CIRCLE
8
CUT
10
17.000
20
243.500
40
1.600
0
CIRCLE
8
CUT
10
29.000
20
243.500
40
1.600
0
POLYLINE
8
CUT
66
1
70
1
0
VERTEX
8
CUT
10
48.000
20
240.000
0
VERTEX
8
CUT
10
70.000
20
240.000
0
VERTEX
8
CUT
10
70.000
20
258.000
0
VERTEX
8
CUT
10
48.000
20
258.000
0
SEQEND
0
CIRCLE
8
CUT
10
59.000
20
252.000
40
2.600
0
CIRCLE
8
CUT
10
53.000
20
243.500
40
1.600
0
CIRCLE
8
CUT
10
65.000
20
243.500
40
1.600
0
ENDSEC
0
EOF
