<svg xmlns="http://www.w3.org/2000/svg" width="360mm" height="272mm" viewBox="0 0 360.0 272.0">
<rect width="360.0" height="272.0" fill="white"/>
<polygon points="12.00,260.00 15.00,260.00 15.00,257.00 33.80,257.00 33.80,260.00 52.60,260.00 52.60,257.00 71.40,257.00 71.40,260.00 90.20,260.00 90.20,257.00 109.00,257.00 109.00,260.00 112.00,260.00 112.00,260.00 112.00,257.00 109.00,257.00 109.00,238.20 112.00,238.20 112.00,219.40 109.00,219.40 109.00,200.60 112.00,200.60 112.00,181.80 109.00,181.80 109.00,163.00 112.00,163.00 112.00,160.00 112.00,160.00 109.00,160.00 109.00,163.00 90.20,163.00 90.20,160.00 71.40,160.00 71.40,163.00 52.60,163.00 52.60,160.00 33.80,160.00 33.80,163.00 15.00,163.00 15.00,160.00 12.00,160.00 12.00,160.00 12.00,163.00 15.00,163.00 15.00,181.80 12.00,181.80 12.00,200.60 15.00,200.60 15.00,219.40 12.00,219.40 12.00,238.20 15.00,238.20 15.00,257.00 12.00,257.00 12.00,260.00" fill="#eef7ef" stroke="#E4002B" stroke-width="0.4"/>
<circle cx="15.00" cy="257.00" r="0.90" fill="none" stroke="#E4002B" stroke-width="0.3"/>
<circle cx="33.80" cy="257.00" r="0.90" fill="none" stroke="#E4002B" stroke-width="0.3"/>
<circle cx="52.60" cy="257.00" r="0.90" fill="none" stroke="#E4002B" stroke-width="0.3"/>
<circle cx="71.40" cy="257.00" r="0.90" fill="none" stroke="#E4002B" stroke-width="0.3"/>
<circle cx="90.20" cy="257.00" r="0.90" fill="none" stroke="#E4002B" stroke-width="0.3"/>
<circle cx="109.00" cy="257.00" r="0.90" fill="none" stroke="#E4002B" stroke-width="0.3"/>
<circle cx="109.00" cy="257.00" r="0.90" fill="none" stroke="#E4002B" stroke-width="0.3"/>
<circle cx="109.00" cy="238.20" r="0.90" fill="none" stroke="#E4002B" stroke-width="0.3"/>
<circle cx="109.00" cy="219.40" r="0.90" fill="none" stroke="#E4002B" stroke-width="0.3"/>
<circle cx="109.00" cy="200.60" r="0.90" fill="none" stroke="#E4002B" stroke-width="0.3"/>
<circle cx="109.00" cy="181.80" r="0.90" fill="none" stroke="#E4002B" stroke-width="0.3"/>
<circle cx="109.00" cy="163.00" r="0.90" fill="none" stroke="#E4002B" stroke-width="0.3"/>
<circle cx="109.00" cy="163.00" r="0.90" fill="none" stroke="#E4002B" stroke-width="0.3"/>
<circle cx="90.20" cy="163.00" r="0.90" fill="none" stroke="#E4002B" stroke-width="0.3"/>
<circle cx="71.40" cy="163.00" r="0.90" fill="none" stroke="#E4002B" stroke-width="0.3"/>
<circle cx="52.60" cy="163.00" r="0.90" fill="none" stroke="#E4002B" stroke-width="0.3"/>
<circle cx="33.80" cy="163.00" r="0.90" fill="none" stroke="#E4002B" stroke-width="0.3"/>
<circle cx="15.00" cy="163.00" r="0.90" fill="none" stroke="#E4002B" stroke-width="0.3"/>
<circle cx="15.00" cy="163.00" r="0.90" fill="none" stroke="#E4002B" stroke-width="0.3"/>
<circle cx="15.00" cy="181.80" r="0.90" fill="none" stroke="#E4002B" stroke-width="0.3"/>
<circle cx="15.00" cy="200.60" r="0.90" fill="none" stroke="#E4002B" stroke-width="0.3"/>
<circle cx="15.00" cy="219.40" r="0.90" fill="none" stroke="#E4002B" stroke-width="0.3"/>
<circle cx="15.00" cy="238.20" r="0.90" fill="none" stroke="#E4002B" stroke-width="0.3"/>
<circle cx="15.00" cy="257.00" r="0.90" fill="none" stroke="#E4002B" stroke-width="0.3"/>
<text x="15.00" y="167.00" font-family="Arial" font-size="4.2" fill="#0057B8">BOTTOM</text>
<polygon points="129.00,260.00 147.80,260.00 147.80,257.00 166.60,257.00 166.60,260.00 185.40,260.00 185.40,257.00 204.20,257.00 204.20,260.00 223.00,260.00 223.00,257.00 226.00,257.00 226.00,238.20 223.00,238.20 223.00,219.40 226.00,219.40 226.00,200.60 223.00,200.60 223.00,181.80 226.00,181.80 226.00,163.00 223.00,163.00 223.00,160.00 129.00,160.00 129.00,163.00 126.00,163.00 126.00,181.80 129.00,181.80 129.00,200.60 126.00,200.60 126.00,219.40 129.00,219.40 129.00,238.20 126.00,238.20 126.00,257.00 129.00,257.00 129.00,260.00" fill="#eef7ef" stroke="#E4002B" stroke-width="0.4"/>
<circle cx="147.80" cy="257.00" r="0.90" fill="none" stroke="#E4002B" stroke-width="0.3"/>
<circle cx="166.60" cy="257.00" r="0.90" fill="none" stroke="#E4002B" stroke-width="0.3"/>
<circle cx="185.40" cy="257.00" r="0.90" fill="none" stroke="#E4002B" stroke-width="0.3"/>
<circle cx="204.20" cy="257.00" r="0.90" fill="none" stroke="#E4002B" stroke-width="0.3"/>
<circle cx="223.00" cy="238.20" r="0.90" fill="none" stroke="#E4002B" stroke-width="0.3"/>
<circle cx="223.00" cy="219.40" r="0.90" fill="none" stroke="#E4002B" stroke-width="0.3"/>
<circle cx="223.00" cy="200.60" r="0.90" fill="none" stroke="#E4002B" stroke-width="0.3"/>
<circle cx="223.00" cy="181.80" r="0.90" fill="none" stroke="#E4002B" stroke-width="0.3"/>
<circle cx="129.00" cy="181.80" r="0.90" fill="none" stroke="#E4002B" stroke-width="0.3"/>
<circle cx="129.00" cy="200.60" r="0.90" fill="none" stroke="#E4002B" stroke-width="0.3"/>
<circle cx="129.00" cy="219.40" r="0.90" fill="none" stroke="#E4002B" stroke-width="0.3"/>
<circle cx="129.00" cy="238.20" r="0.90" fill="none" stroke="#E4002B" stroke-width="0.3"/>
<text x="176.00" y="216.50" font-family="Arial" font-size="13" fill="#0057B8" text-anchor="middle">ALUMINUM</text>
<text x="176.00" y="197.50" font-family="Arial" font-size="5" fill="#0057B8" text-anchor="middle">KEEP IT GREEN</text>
<text x="129.00" y="167.00" font-family="Arial" font-size="4.2" fill="#0057B8">FRONT (label)</text>
<polygon points="243.00,260.00 261.80,260.00 261.80,257.00 280.60,257.00 280.60,260.00 299.40,260.00 299.40,257.00 318.20,257.00 318.20,260.00 337.00,260.00 337.00,257.00 340.00,257.00 340.00,238.20 337.00,238.20 337.00,219.40 340.00,219.40 340.00,200.60 337.00,200.60 337.00,181.80 340.00,181.80 340.00,163.00 337.00,163.00 337.00,160.00 243.00,160.00 243.00,163.00 240.00,163.00 240.00,181.80 243.00,181.80 243.00,200.60 240.00,200.60 240.00,219.40 243.00,219.40 243.00,238.20 240.00,238.20 240.00,257.00 243.00,257.00 243.00,260.00" fill="#eef7ef" stroke="#E4002B" stroke-width="0.4"/>
<circle cx="290.00" cy="242.00" r="3.50" fill="none" stroke="#E4002B" stroke-width="0.4"/>
<circle cx="261.80" cy="257.00" r="0.90" fill="none" stroke="#E4002B" stroke-width="0.3"/>
<circle cx="280.60" cy="257.00" r="0.90" fill="none" stroke="#E4002B" stroke-width="0.3"/>
<circle cx="299.40" cy="257.00" r="0.90" fill="none" stroke="#E4002B" stroke-width="0.3"/>
<circle cx="318.20" cy="257.00" r="0.90" fill="none" stroke="#E4002B" stroke-width="0.3"/>
<circle cx="337.00" cy="238.20" r="0.90" fill="none" stroke="#E4002B" stroke-width="0.3"/>
<circle cx="337.00" cy="219.40" r="0.90" fill="none" stroke="#E4002B" stroke-width="0.3"/>
<circle cx="337.00" cy="200.60" r="0.90" fill="none" stroke="#E4002B" stroke-width="0.3"/>
<circle cx="337.00" cy="181.80" r="0.90" fill="none" stroke="#E4002B" stroke-width="0.3"/>
<circle cx="243.00" cy="181.80" r="0.90" fill="none" stroke="#E4002B" stroke-width="0.3"/>
<circle cx="243.00" cy="200.60" r="0.90" fill="none" stroke="#E4002B" stroke-width="0.3"/>
<circle cx="243.00" cy="219.40" r="0.90" fill="none" stroke="#E4002B" stroke-width="0.3"/>
<circle cx="243.00" cy="238.20" r="0.90" fill="none" stroke="#E4002B" stroke-width="0.3"/>
<text x="243.00" y="167.00" font-family="Arial" font-size="4.2" fill="#0057B8">BACK (cable)</text>
<polygon points="15.00,146.00 33.80,146.00 33.80,143.00 52.60,143.00 52.60,146.00 71.40,146.00 71.40,143.00 90.20,143.00 90.20,146.00 109.00,146.00 109.00,143.00 112.00,143.00 109.00,143.00 109.00,124.20 112.00,124.20 112.00,105.40 109.00,105.40 109.00,86.60 112.00,86.60 112.00,67.80 109.00,67.80 109.00,49.00 112.00,49.00 109.00,49.00 109.00,46.00 15.00,46.00 15.00,49.00 12.00,49.00 15.00,49.00 15.00,67.80 12.00,67.80 12.00,86.60 15.00,86.60 15.00,105.40 12.00,105.40 12.00,124.20 15.00,124.20 15.00,143.00 12.00,143.00 15.00,143.00 15.00,146.00" fill="#eef7ef" stroke="#E4002B" stroke-width="0.4"/>
<circle cx="95.00" cy="52.00" r="1.15" fill="none" stroke="#E4002B" stroke-width="0.4"/>
<circle cx="95.00" cy="80.00" r="1.15" fill="none" stroke="#E4002B" stroke-width="0.4"/>
<circle cx="95.00" cy="88.00" r="3.00" fill="none" stroke="#E4002B" stroke-width="0.4"/>
<rect x="88.70" y="54.40" width="12.60" height="23.20" fill="none" stroke="#E4002B" stroke-width="0.4"/>
<circle cx="33.80" cy="143.00" r="0.90" fill="none" stroke="#E4002B" stroke-width="0.3"/>
<circle cx="52.60" cy="143.00" r="0.90" fill="none" stroke="#E4002B" stroke-width="0.3"/>
<circle cx="71.40" cy="143.00" r="0.90" fill="none" stroke="#E4002B" stroke-width="0.3"/>
<circle cx="90.20" cy="143.00" r="0.90" fill="none" stroke="#E4002B" stroke-width="0.3"/>
<circle cx="109.00" cy="143.00" r="0.90" fill="none" stroke="#E4002B" stroke-width="0.3"/>
<circle cx="109.00" cy="124.20" r="0.90" fill="none" stroke="#E4002B" stroke-width="0.3"/>
<circle cx="109.00" cy="105.40" r="0.90" fill="none" stroke="#E4002B" stroke-width="0.3"/>
<circle cx="109.00" cy="86.60" r="0.90" fill="none" stroke="#E4002B" stroke-width="0.3"/>
<circle cx="109.00" cy="67.80" r="0.90" fill="none" stroke="#E4002B" stroke-width="0.3"/>
<circle cx="109.00" cy="49.00" r="0.90" fill="none" stroke="#E4002B" stroke-width="0.3"/>
<circle cx="15.00" cy="49.00" r="0.90" fill="none" stroke="#E4002B" stroke-width="0.3"/>
<circle cx="15.00" cy="67.80" r="0.90" fill="none" stroke="#E4002B" stroke-width="0.3"/>
<circle cx="15.00" cy="86.60" r="0.90" fill="none" stroke="#E4002B" stroke-width="0.3"/>
<circle cx="15.00" cy="105.40" r="0.90" fill="none" stroke="#E4002B" stroke-width="0.3"/>
<circle cx="15.00" cy="124.20" r="0.90" fill="none" stroke="#E4002B" stroke-width="0.3"/>
<circle cx="15.00" cy="143.00" r="0.90" fill="none" stroke="#E4002B" stroke-width="0.3"/>
<text x="15.00" y="53.00" font-family="Arial" font-size="4.2" fill="#0057B8">RIGHT (servo)</text>
<polygon points="129.00,146.00 147.80,146.00 147.80,143.00 166.60,143.00 166.60,146.00 185.40,146.00 185.40,143.00 204.20,143.00 204.20,146.00 223.00,146.00 223.00,143.00 226.00,143.00 223.00,143.00 223.00,124.20 226.00,124.20 226.00,105.40 223.00,105.40 223.00,86.60 226.00,86.60 226.00,67.80 223.00,67.80 223.00,49.00 226.00,49.00 223.00,49.00 223.00,46.00 129.00,46.00 129.00,49.00 126.00,49.00 129.00,49.00 129.00,67.80 126.00,67.80 126.00,86.60 129.00,86.60 129.00,105.40 126.00,105.40 126.00,124.20 129.00,124.20 129.00,143.00 126.00,143.00 129.00,143.00 129.00,146.00" fill="#eef7ef" stroke="#E4002B" stroke-width="0.4"/>
<circle cx="209.00" cy="66.00" r="1.80" fill="none" stroke="#E4002B" stroke-width="0.4"/>
<circle cx="147.80" cy="143.00" r="0.90" fill="none" stroke="#E4002B" stroke-width="0.3"/>
<circle cx="166.60" cy="143.00" r="0.90" fill="none" stroke="#E4002B" stroke-width="0.3"/>
<circle cx="185.40" cy="143.00" r="0.90" fill="none" stroke="#E4002B" stroke-width="0.3"/>
<circle cx="204.20" cy="143.00" r="0.90" fill="none" stroke="#E4002B" stroke-width="0.3"/>
<circle cx="223.00" cy="143.00" r="0.90" fill="none" stroke="#E4002B" stroke-width="0.3"/>
<circle cx="223.00" cy="124.20" r="0.90" fill="none" stroke="#E4002B" stroke-width="0.3"/>
<circle cx="223.00" cy="105.40" r="0.90" fill="none" stroke="#E4002B" stroke-width="0.3"/>
<circle cx="223.00" cy="86.60" r="0.90" fill="none" stroke="#E4002B" stroke-width="0.3"/>
<circle cx="223.00" cy="67.80" r="0.90" fill="none" stroke="#E4002B" stroke-width="0.3"/>
<circle cx="223.00" cy="49.00" r="0.90" fill="none" stroke="#E4002B" stroke-width="0.3"/>
<circle cx="129.00" cy="49.00" r="0.90" fill="none" stroke="#E4002B" stroke-width="0.3"/>
<circle cx="129.00" cy="67.80" r="0.90" fill="none" stroke="#E4002B" stroke-width="0.3"/>
<circle cx="129.00" cy="86.60" r="0.90" fill="none" stroke="#E4002B" stroke-width="0.3"/>
<circle cx="129.00" cy="105.40" r="0.90" fill="none" stroke="#E4002B" stroke-width="0.3"/>
<circle cx="129.00" cy="124.20" r="0.90" fill="none" stroke="#E4002B" stroke-width="0.3"/>
<circle cx="129.00" cy="143.00" r="0.90" fill="none" stroke="#E4002B" stroke-width="0.3"/>
<text x="129.00" y="53.00" font-family="Arial" font-size="4.2" fill="#0057B8">LEFT (pivot)</text>
<polygon points="240.00,146.00 340.00,146.00 340.00,46.00 240.00,46.00" fill="#eef7ef" stroke="#E4002B" stroke-width="0.4"/>
<circle cx="290.00" cy="134.00" r="11.00" fill="none" stroke="#E4002B" stroke-width="0.4"/>
<circle cx="254.00" cy="58.00" r="1.60" fill="none" stroke="#E4002B" stroke-width="0.4"/>
<circle cx="266.00" cy="58.00" r="1.60" fill="none" stroke="#E4002B" stroke-width="0.4"/>
<circle cx="326.00" cy="58.00" r="1.60" fill="none" stroke="#E4002B" stroke-width="0.4"/>
<circle cx="314.00" cy="58.00" r="1.60" fill="none" stroke="#E4002B" stroke-width="0.4"/>
<text x="290.00" y="100.50" font-family="Arial" font-size="9" fill="#0057B8" text-anchor="middle">ALUMINUM</text>
<text x="243.00" y="53.00" font-family="Arial" font-size="4.2" fill="#0057B8">LID</text>
<polygon points="12.00,32.00 34.00,32.00 34.00,14.00 12.00,14.00" fill="#eef7ef" stroke="#E4002B" stroke-width="0.4"/>
<circle cx="23.00" cy="20.00" r="2.60" fill="none" stroke="#E4002B" stroke-width="0.4"/>
<circle cx="17.00" cy="28.50" r="1.60" fill="none" stroke="#E4002B" stroke-width="0.4"/>
<circle cx="29.00" cy="28.50" r="1.60" fill="none" stroke="#E4002B" stroke-width="0.4"/>
<text x="15.00" y="21.00" font-family="Arial" font-size="4.2" fill="#0057B8">BRACKET-R (horn)</text>
<polygon points="48.00,32.00 70.00,32.00 70.00,14.00 48.00,14.00" fill="#eef7ef" stroke="#E4002B" stroke-width="0.4"/>
<circle cx="59.00" cy="20.00" r="2.60" fill="none" stroke="#E4002B" stroke-width="0.4"/>
<circle cx="53.00" cy="28.50" r="1.60" fill="none" stroke="#E4002B" stroke-width="0.4"/>
<circle cx="65.00" cy="28.50" r="1.60" fill="none" stroke="#E4002B" stroke-width="0.4"/>
<text x="51.00" y="21.00" font-family="Arial" font-size="4.2" fill="#0057B8">BRACKET-L (pivot)</text>
</svg>